<svg width="56" height="56" viewBox="0 0 56 56" fill="none" xmlns="http://www.w3.org/2000/svg">
<circle cx="28" cy="28" r="28" fill="#1C84FF"/>
<path d="M22.707 23.6994H35.3398C35.889 23.6994 36.3359 23.2524 36.3359 22.7033V18.9414C36.3359 18.3921 35.889 17.9453 35.3398 17.9453H22.707C22.1577 17.9453 21.7109 18.3921 21.7109 18.9414V22.7033C21.7109 23.2524 22.1577 23.6994 22.707 23.6994ZM22.4141 18.9414C22.4141 18.7799 22.5455 18.6484 22.707 18.6484H35.3398C35.5013 18.6484 35.6328 18.7799 35.6328 18.9414V22.7033C35.6328 22.8648 35.5013 22.9963 35.3398 22.9963H22.707C22.5455 22.9963 22.4141 22.8648 22.4141 22.7033V18.9414Z" fill="white"/>
<path d="M33.4373 22.113C33.4373 21.9314 33.2922 21.7842 33.1132 21.7842C32.9341 21.7842 32.7891 21.9314 32.7891 22.113C32.7891 22.2945 32.9341 22.4417 33.1132 22.4417C33.2922 22.4417 33.4373 22.2945 33.4373 22.113Z" fill="white"/>
<path d="M32.7124 19.84C33.0669 19.6168 33.7107 19.7217 33.7107 20.1359C33.7107 20.3919 33.5371 20.5067 33.122 20.5547C32.927 20.5772 32.8263 20.6765 32.8338 20.864L32.8494 21.2578C32.8552 21.4014 32.9731 21.516 33.118 21.516C33.2592 21.516 33.3771 21.4074 33.3859 21.2692L33.4 21.0463C33.8982 20.9658 34.2662 20.668 34.2662 20.1359C34.2662 18.913 32.3125 19.0657 32.3125 19.6183C32.3125 19.8254 32.5412 19.9479 32.7124 19.84Z" fill="white"/>
<path d="M23.7812 20.3262H30.6953C30.8896 20.3262 31.0469 20.1689 31.0469 19.9746C31.0469 19.7805 30.8896 19.623 30.6953 19.623H23.7812C23.587 19.623 23.4297 19.7805 23.4297 19.9746C23.4297 20.1689 23.587 20.3262 23.7812 20.3262Z" fill="white"/>
<path d="M23.7812 22.0215H30.6953C30.8896 22.0215 31.0469 21.8642 31.0469 21.6699C31.0469 21.4756 30.8896 21.3184 30.6953 21.3184H23.7812C23.587 21.3184 23.4297 21.4756 23.4297 21.6699C23.4297 21.8642 23.587 22.0215 23.7812 22.0215Z" fill="white"/>
<path d="M21.7109 29.8809C21.7109 30.4302 22.1577 30.877 22.707 30.877H35.3398C35.889 30.877 36.3359 30.4302 36.3359 29.8809V26.1191C36.3359 25.5698 35.889 25.123 35.3398 25.123H22.707C22.1577 25.123 21.7109 25.5698 21.7109 26.1191V29.8809ZM22.4141 26.1191C22.4141 25.9576 22.5455 25.8262 22.707 25.8262H35.3398C35.5013 25.8262 35.6328 25.9576 35.6328 26.1191V29.8809C35.6328 30.0424 35.5013 30.1738 35.3398 30.1738H22.707C22.5455 30.1738 22.4141 30.0424 22.4141 29.8809V26.1191Z" fill="white"/>
<path d="M33.4373 29.2906C33.4373 29.1091 33.2922 28.9619 33.1132 28.9619C32.9341 28.9619 32.7891 29.1091 32.7891 29.2906C32.7891 29.4722 32.9341 29.6194 33.1132 29.6194C33.2922 29.6194 33.4373 29.4722 33.4373 29.2906Z" fill="white"/>
<path d="M32.7124 27.0175C33.0669 26.7943 33.7107 26.8992 33.7107 27.3134C33.7107 27.5693 33.5371 27.6841 33.122 27.7321C32.927 27.7546 32.8263 27.8537 32.8338 28.0414L32.8494 28.4352C32.8552 28.5788 32.9731 28.6932 33.118 28.6932C33.2592 28.6932 33.3771 28.5848 33.3859 28.4464L33.4 28.2238C33.8982 28.1432 34.2662 27.8453 34.2662 27.3132C34.2662 26.0902 32.3125 26.2429 32.3125 26.7955C32.3125 27.0026 32.5412 27.1253 32.7124 27.0175Z" fill="white"/>
<path d="M23.7812 27.5039H30.6953C30.8896 27.5039 31.0469 27.3466 31.0469 27.1523C31.0469 26.9583 30.8896 26.8008 30.6953 26.8008H23.7812C23.587 26.8008 23.4297 26.9583 23.4297 27.1523C23.4297 27.3466 23.587 27.5039 23.7812 27.5039Z" fill="white"/>
<path d="M23.7812 29.1992H30.6953C30.8896 29.1992 31.0469 29.0417 31.0469 28.8477C31.0469 28.6534 30.8896 28.4961 30.6953 28.4961H23.7812C23.587 28.4961 23.4297 28.6534 23.4297 28.8477C23.4297 29.0417 23.587 29.1992 23.7812 29.1992Z" fill="white"/>
<path d="M34.2659 34.491C34.2659 33.5668 33.0843 33.346 32.4352 33.7514C32.2143 33.8893 32.3105 34.235 32.5736 34.235C32.6245 34.235 32.6719 34.2205 32.712 34.1953C33.0665 33.9721 33.7103 34.077 33.7103 34.4912C33.7103 34.7471 33.5367 34.862 33.1216 34.9097C32.9266 34.9323 32.8259 35.0315 32.8334 35.2192L32.849 35.6131C32.8548 35.7564 32.9728 35.871 33.1176 35.871C33.2588 35.871 33.3767 35.7627 33.3855 35.6242L33.3996 35.4014C33.898 35.321 34.2659 35.0231 34.2659 34.491Z" fill="white"/>
<path d="M33.4373 36.4683C33.4373 36.2869 33.2922 36.1396 33.1132 36.1396C32.9341 36.1396 32.7891 36.2869 32.7891 36.4683C32.7891 36.65 32.9341 36.7972 33.1132 36.7972C33.2922 36.7972 33.4373 36.65 33.4373 36.4683Z" fill="white"/>
<path d="M30.6953 33.9785H23.7812C23.587 33.9785 23.4297 34.1358 23.4297 34.3301C23.4297 34.5244 23.587 34.6816 23.7812 34.6816H30.6953C30.8896 34.6816 31.0469 34.5244 31.0469 34.3301C31.0469 34.1358 30.8896 33.9785 30.6953 33.9785Z" fill="white"/>
<path d="M30.6953 35.6738H23.7812C23.587 35.6738 23.4297 35.8311 23.4297 36.0254C23.4297 36.2195 23.587 36.377 23.7812 36.377H30.6953C30.8896 36.377 31.0469 36.2195 31.0469 36.0254C31.0469 35.8311 30.8896 35.6738 30.6953 35.6738Z" fill="white"/>
<path d="M21.7109 37.0588C21.7109 37.6081 22.1577 38.0549 22.707 38.0549H35.3398C35.889 38.0549 36.3359 37.6081 36.3359 37.0588V35.9341C36.3359 35.7399 36.1785 35.5826 35.9844 35.5826C35.7901 35.5826 35.6328 35.7399 35.6328 35.9341V37.0588C35.6328 37.2203 35.5013 37.3517 35.3398 37.3517H22.707C22.5455 37.3517 22.4141 37.2203 22.4141 37.0588V33.2969C22.4141 33.1354 22.5455 33.0039 22.707 33.0039H35.3398C35.5013 33.0039 35.6328 33.1354 35.6328 33.2969V34.6216C35.6328 34.8159 35.7901 34.9732 35.9844 34.9732C36.1785 34.9732 36.3359 34.8159 36.3359 34.6216V33.2969C36.3359 32.7477 35.889 32.3008 35.3398 32.3008H22.707C22.1577 32.3008 21.7109 32.7477 21.7109 33.2969V37.0588Z" fill="white"/>
<path d="M36.7891 16H21.2568C20.3829 16 19.6719 16.711 19.6719 17.585V18.5278C19.6719 18.7219 19.8293 18.8793 20.0234 18.8793C20.2177 18.8793 20.375 18.7219 20.375 18.5278V17.585C20.375 17.0986 20.7707 16.7031 21.2568 16.7031H36.7891C37.2753 16.7031 37.671 17.0986 37.671 17.585V38.415C37.671 38.9014 37.2755 39.2969 36.7891 39.2969H21.2568C20.7707 39.2969 20.375 38.9014 20.375 38.415V19.8403C20.375 19.646 20.2177 19.4887 20.0234 19.4887C19.8292 19.4887 19.6719 19.646 19.6719 19.8403V38.415C19.6719 39.289 20.3829 40 21.2568 40H36.7891C37.6631 40 38.3741 39.289 38.3741 38.415V17.585C38.3741 16.711 37.6631 16 36.7891 16Z" fill="white"/>
</svg>
