<svg width="56" height="56" viewBox="0 0 56 56" fill="none" xmlns="http://www.w3.org/2000/svg">
<circle cx="28" cy="28" r="28" fill="#29DE92"/>
<path d="M36.8992 19.4039H36.7877V18.608C36.7877 17.8073 36.1366 17.1562 35.3359 17.1562C34.5353 17.1562 33.8842 17.8073 33.8842 18.608V19.4039H31.8972V18.608C31.8972 17.8073 31.2461 17.1562 30.4455 17.1562C29.6448 17.1562 28.9938 17.8073 28.9938 18.608V19.4039H27.0067V18.608C27.0067 17.8073 26.3556 17.1562 25.555 17.1562C24.7544 17.1562 24.1033 17.8073 24.1033 18.608V19.4039H22.1163V18.608C22.1163 17.8073 21.4652 17.1562 20.6645 17.1562C19.8639 17.1562 19.2123 17.8073 19.2123 18.608V19.4039H19.1008C17.7789 19.4039 16.7031 20.4806 16.7031 21.8039V24.4369V36.0919C16.7031 37.6092 17.9378 38.8439 19.4552 38.8439H36.5448C38.0622 38.8439 39.2969 37.6092 39.2969 36.0919V24.4369V21.8039C39.2969 20.4806 38.2211 19.4039 36.8992 19.4039ZM34.4462 18.608C34.4462 18.1177 34.8452 17.7187 35.3355 17.7187C35.8258 17.7187 36.2247 18.1177 36.2247 18.608V21.083C36.2247 21.5733 35.8258 21.9722 35.3355 21.9722C34.8452 21.9722 34.4462 21.5733 34.4462 21.083V18.608ZM29.5558 18.608C29.5558 18.1177 29.9547 17.7187 30.445 17.7187C30.9353 17.7187 31.3342 18.1177 31.3342 18.608V21.083C31.3342 21.5733 30.9353 21.9722 30.445 21.9722C29.9547 21.9722 29.5558 21.5733 29.5558 21.083V18.608ZM24.6653 18.608C24.6653 18.1177 25.0642 17.7187 25.5545 17.7187C26.0448 17.7187 26.4438 18.1177 26.4438 18.608V21.083C26.4438 21.5733 26.0448 21.9722 25.5545 21.9722C25.0642 21.9722 24.6653 21.5733 24.6653 21.083V18.608ZM19.7748 18.608C19.7748 18.1177 20.1737 17.7187 20.6641 17.7187C21.1544 17.7187 21.5533 18.1177 21.5533 18.608V21.083C21.5533 21.5733 21.1544 21.9722 20.6641 21.9722C20.1737 21.9722 19.7748 21.5733 19.7748 21.083V18.608ZM38.7344 36.0914C38.7344 37.2984 37.7523 38.2809 36.5448 38.2809H19.4552C18.2481 38.2809 17.2656 37.2989 17.2656 36.0914V24.7181H38.7344V36.0914ZM38.7344 24.1556H17.2656V21.8039C17.2656 20.7905 18.0888 19.9659 19.1008 19.9659H19.2123V21.0825C19.2123 21.8831 19.8634 22.5342 20.6641 22.5342C21.4647 22.5342 22.1158 21.8831 22.1158 21.0825V19.9664H24.1028V21.083C24.1028 21.8836 24.7539 22.5347 25.5545 22.5347C26.3552 22.5347 27.0063 21.8836 27.0063 21.083V19.9664H28.9933V21.083C28.9933 21.8836 29.6444 22.5347 30.445 22.5347C31.2456 22.5347 31.8967 21.8836 31.8967 21.083V19.9664H33.8837V21.083C33.8837 21.8836 34.5348 22.5347 35.3355 22.5347C36.1361 22.5347 36.7872 21.8836 36.7872 21.083V19.9664H36.8988C37.9108 19.9664 38.7339 20.7909 38.7339 21.8044V24.1556H38.7344ZM19.998 30.4252H23.3781C23.5333 30.4252 23.6594 30.2991 23.6594 30.1439V26.648C23.6594 26.4928 23.5333 26.3667 23.3781 26.3667H19.998C19.8428 26.3667 19.7167 26.4928 19.7167 26.648V30.1439C19.7167 30.2991 19.8428 30.4252 19.998 30.4252ZM20.2792 26.9292H23.0969V29.8627H20.2792V26.9292ZM32.3387 30.4252H35.7189C35.8741 30.4252 36.0002 30.2991 36.0002 30.1439V26.648C36.0002 26.4928 35.8741 26.3667 35.7189 26.3667H32.3387C32.1836 26.3667 32.0575 26.4928 32.0575 26.648V30.1439C32.0575 30.2991 32.1836 30.4252 32.3387 30.4252ZM32.62 26.9292H35.4377V29.8627H32.62V26.9292ZM19.998 36.2358H23.3781C23.5333 36.2358 23.6594 36.1097 23.6594 35.9545V32.4586C23.6594 32.3034 23.5333 32.1773 23.3781 32.1773H19.998C19.8428 32.1773 19.7167 32.3034 19.7167 32.4586V35.9545C19.7167 36.1097 19.8428 36.2358 19.998 36.2358ZM20.2792 32.7398H23.0969V35.6733H20.2792V32.7398ZM29.5487 32.1773H26.1686C26.0134 32.1773 25.8873 32.3034 25.8873 32.4586V35.9545C25.8873 36.1097 26.0134 36.2358 26.1686 36.2358H29.5487C29.7039 36.2358 29.83 36.1097 29.83 35.9545V32.4586C29.83 32.3034 29.7039 32.1773 29.5487 32.1773ZM29.2675 35.6733H26.4498V32.7398H29.2675V35.6733ZM32.3387 36.2358H35.7189C35.8741 36.2358 36.0002 36.1097 36.0002 35.9545V32.4586C36.0002 32.3034 35.8741 32.1773 35.7189 32.1773H32.3387C32.1836 32.1773 32.0575 32.3034 32.0575 32.4586V35.9545C32.0575 36.1097 32.1836 36.2358 32.3387 36.2358ZM32.62 32.7398H35.4377V35.6733H32.62V32.7398ZM25.9694 28.395C25.8597 28.2853 25.8597 28.1072 25.9694 27.997C26.0795 27.8873 26.2572 27.8873 26.3673 27.997L27.4225 29.0531L29.4573 27.0656C29.5684 26.9573 29.7466 26.9592 29.8548 27.0703C29.9636 27.1814 29.9613 27.3595 29.8502 27.4678L27.6161 29.6498C27.5612 29.7033 27.4905 29.73 27.4197 29.73C27.3475 29.73 27.2758 29.7023 27.2205 29.6475L25.9694 28.395Z" fill="white"/>
</svg>
