<svg width="56" height="56" viewBox="0 0 56 56" fill="none" xmlns="http://www.w3.org/2000/svg">
<circle cx="28" cy="28" r="28" fill="#C985FF"/>
<path d="M19.6331 38.5714H28.2785C28.5275 38.5714 28.7296 38.3794 28.7296 38.1429C28.7296 37.9063 28.5275 37.7143 28.2785 37.7143H19.6331C19.2298 37.7143 18.9023 37.4031 18.9023 37.02V19.5514C18.9023 19.1683 19.2298 18.8571 19.6331 18.8571H29.7293V22.7143C29.7293 22.9509 29.9314 23.1429 30.1805 23.1429H34.2406V27.2477C34.2406 27.4843 34.4427 27.6763 34.6917 27.6763C34.9408 27.6763 35.1429 27.4843 35.1429 27.2477V22.7143C35.1429 22.6586 35.1311 22.6029 35.1086 22.5506C35.086 22.4974 35.0526 22.4503 35.0102 22.4109L30.4998 18.126C30.4583 18.0866 30.4078 18.0549 30.3528 18.0326C30.2977 18.0111 30.2391 18 30.1805 18H19.6331C18.7326 18 18 18.696 18 19.5514V37.02C18 37.8754 18.7326 38.5714 19.6331 38.5714ZM30.6316 19.4631L33.6027 22.2857H30.6316V19.4631Z" fill="white"/>
<g clip-path="url(#clip0_4535_783)">
<mask id="mask0_4535_783" style="mask-type:luminance" maskUnits="userSpaceOnUse" x="26" y="27" width="13" height="13">
<path d="M26.7891 27.7397H38.3091V39.2597H26.7891V27.7397Z" fill="white"/>
</mask>
<g mask="url(#mask0_4535_783)">
<path d="M37.4636 34.4832C37.5132 34.22 37.5455 33.9523 37.5455 33.6818C37.5455 31.9068 36.4514 30.3141 34.8105 29.6668C34.8118 29.6414 34.8182 29.6168 34.8182 29.5909C34.8182 28.7136 34.1046 28 33.2273 28C32.35 28 31.6364 28.7136 31.6364 29.5909C31.6364 29.6168 31.6427 29.6409 31.6441 29.6668C30.0018 30.3145 28.9091 31.9041 28.9091 33.6818C28.9091 33.9514 28.9409 34.2191 28.9905 34.4832C28.4105 34.7209 28 35.29 28 35.9545C28 36.8318 28.7136 37.5455 29.5909 37.5455C29.9964 37.5455 30.3632 37.3882 30.6445 37.1373C31.3873 37.6932 32.2955 38 33.2273 38C34.1596 38 35.0673 37.6932 35.81 37.1373C36.0914 37.3882 36.4582 37.5455 36.8636 37.5455C37.7409 37.5455 38.4546 36.8318 38.4546 35.9545C38.4546 35.29 38.0441 34.7209 37.4636 34.4832ZM30.9382 36.7905C31.09 36.5468 31.1818 36.2623 31.1818 35.9545C31.1818 35.0773 30.4682 34.3636 29.5909 34.3636C29.5368 34.3636 29.4859 34.3741 29.4332 34.3795C29.3914 34.15 29.3636 33.9168 29.3636 33.6818C29.3636 32.1195 30.3114 30.7273 31.7364 30.1286C31.9582 30.7405 32.5396 31.1818 33.2273 31.1818C33.915 31.1818 34.4968 30.7405 34.7182 30.1282C36.1427 30.7268 37.0909 32.1223 37.0909 33.6818C37.0909 33.9177 37.0632 34.1505 37.0214 34.3795C36.9686 34.3741 36.9177 34.3636 36.8636 34.3636C35.9864 34.3636 35.2727 35.0773 35.2727 35.9545C35.2727 36.2618 35.3646 36.5468 35.5159 36.7905C34.8559 37.2768 34.0523 37.5455 33.2273 37.5455C32.4027 37.5455 31.5991 37.2768 30.9382 36.7905Z" fill="white"/>
</g>
</g>
<path d="M21.2222 31.5H26.7778C26.9004 31.5 27 31.388 27 31.25C27 31.112 26.9004 31 26.7778 31H21.2222C21.0996 31 21 31.112 21 31.25C21 31.388 21.0996 31.5 21.2222 31.5Z" fill="white"/>
<path d="M21.2222 22.7856H26.7778C26.9004 22.7856 27 22.6736 27 22.5356C27 22.3976 26.9004 22.2856 26.7778 22.2856H21.2222C21.0996 22.2856 21 22.3976 21 22.5356C21 22.6736 21.0996 22.7856 21.2222 22.7856Z" fill="white"/>
<path d="M21.2222 25.5H26.7778C26.9004 25.5 27 25.388 27 25.25C27 25.112 26.9004 25 26.7778 25H21.2222C21.0996 25 21 25.112 21 25.25C21 25.388 21.0996 25.5 21.2222 25.5Z" fill="white"/>
<path d="M25.0602 34H21.2256C21.1011 34 21 34.112 21 34.25C21 34.388 21.1011 34.5 21.2256 34.5H25.0602C25.1847 34.5 25.2857 34.388 25.2857 34.25C25.2857 34.112 25.1847 34 25.0602 34Z" fill="white"/>
<path d="M25.4196 28H21.2946C21.132 28 21 28.112 21 28.25C21 28.388 21.132 28.5 21.2946 28.5H25.4196C25.5823 28.5 25.7143 28.388 25.7143 28.25C25.7143 28.112 25.5823 28 25.4196 28Z" fill="white"/>
<defs>
<clipPath id="clip0_4535_783">
<rect width="12" height="12" fill="white" transform="translate(26.5 27.5)"/>
</clipPath>
</defs>
</svg>
