<svg xmlns="http://www.w3.org/2000/svg" version="1.1" xmlns:xlink="http://www.w3.org/1999/xlink" width="512" height="512" x="0" y="0" viewBox="0 0 32 32" style="enable-background:new 0 0 512 512" xml:space="preserve" fill-rule="evenodd"><g><path d="m21.546 17.572 6.597 8.202A2.998 2.998 0 0 1 27 26H5c-.396 0-.784-.078-1.143-.226l6.597-8.202A4.903 4.903 0 0 0 13.913 19h4.174a4.905 4.905 0 0 0 3.459-1.428zM2.366 7.564 9.152 16l-6.786 8.436A3.002 3.002 0 0 1 2 23V9c0-.506.128-.999.366-1.436zm27.268 0c.238.437.366.93.366 1.436v14c0 .506-.128.999-.366 1.436L22.848 16zM3.857 6.226A2.998 2.998 0 0 1 5 6h22c.396 0 .784.078 1.143.226l-7.795 9.691A2.9 2.9 0 0 1 18.087 17h-4.174a2.9 2.9 0 0 1-2.261-1.083z" fill="#ffffff" opacity="1" data-original="#000000"></path></g></svg>