<svg width="56" height="56" viewBox="0 0 56 56" fill="none" xmlns="http://www.w3.org/2000/svg">
<circle cx="28" cy="28" r="28" fill="#F8285A"/>
<path d="M18.6331 36.5714H27.2785C27.5275 36.5714 27.7296 36.3794 27.7296 36.1429C27.7296 35.9063 27.5275 35.7143 27.2785 35.7143H18.6331C18.2298 35.7143 17.9023 35.4031 17.9023 35.02V17.5514C17.9023 17.1683 18.2298 16.8571 18.6331 16.8571H28.7293V20.7143C28.7293 20.9509 28.9314 21.1429 29.1805 21.1429H33.2406V25.2477C33.2406 25.4843 33.4427 25.6763 33.6917 25.6763C33.9408 25.6763 34.1429 25.4843 34.1429 25.2477V20.7143C34.1429 20.6586 34.1311 20.6029 34.1086 20.5506C34.086 20.4974 34.0526 20.4503 34.0102 20.4109L29.4998 16.126C29.4583 16.0866 29.4078 16.0549 29.3528 16.0326C29.2977 16.0111 29.2391 16 29.1805 16H18.6331C17.7326 16 17 16.696 17 17.5514V35.02C17 35.8754 17.7326 36.5714 18.6331 36.5714ZM29.6316 17.4631L32.6027 20.2857H29.6316V17.4631Z" fill="white"/>
<path d="M33.2148 26.2856C30.1828 26.2856 27.7148 28.7536 27.7148 31.7856C27.7148 34.8176 30.1828 37.2856 33.2148 37.2856C36.2468 37.2856 38.7148 34.8176 38.7148 31.7856C38.7148 28.7536 36.2468 26.2856 33.2148 26.2856ZM33.2148 36.2856C30.7338 36.2856 28.7148 34.2666 28.7148 31.7856C28.7148 29.3046 30.7338 27.2856 33.2148 27.2856C35.6958 27.2856 37.7148 29.3046 37.7148 31.7856C37.7148 34.2666 35.6958 36.2856 33.2148 36.2856Z" fill="white"/>
<path d="M33.5918 28.8696C33.0978 28.7586 32.5918 28.8696 32.2028 29.1796C31.8128 29.4906 31.5898 29.9536 31.5898 30.4516C31.5898 30.7276 31.8138 30.9516 32.0898 30.9516C32.3658 30.9516 32.5898 30.7276 32.5898 30.4516C32.5898 30.2606 32.6758 30.0816 32.8258 29.9616C32.9758 29.8406 33.1688 29.7976 33.3678 29.8446C33.5898 29.8956 33.7708 30.0766 33.8218 30.2976C33.8918 30.6086 33.7408 30.8446 33.5758 30.9616C33.0368 31.3436 32.7148 31.9666 32.7148 32.6286C32.7148 32.9046 32.9388 33.1286 33.2148 33.1286C33.4908 33.1286 33.7148 32.9046 33.7148 32.6286C33.7148 32.2906 33.8788 31.9726 34.1548 31.7766C34.6928 31.3936 34.9448 30.7256 34.7968 30.0746C34.6608 29.4776 34.1878 29.0056 33.5918 28.8696Z" fill="white"/>
<path d="M33.2148 34.8955C33.491 34.8955 33.7148 34.6717 33.7148 34.3955C33.7148 34.1194 33.491 33.8955 33.2148 33.8955C32.9387 33.8955 32.7148 34.1194 32.7148 34.3955C32.7148 34.6717 32.9387 34.8955 33.2148 34.8955Z" fill="white"/>
<path d="M19.7925 29.7142H25.3481C25.4708 29.7142 25.5703 29.6182 25.5703 29.4999C25.5703 29.3816 25.4708 29.2856 25.3481 29.2856H19.7925C19.6699 29.2856 19.5703 29.3816 19.5703 29.4999C19.5703 29.6182 19.6699 29.7142 19.7925 29.7142Z" fill="white"/>
<path d="M19.7925 20.7142H25.3481C25.4708 20.7142 25.5703 20.6182 25.5703 20.4999C25.5703 20.3816 25.4708 20.2856 25.3481 20.2856H19.7925C19.6699 20.2856 19.5703 20.3816 19.5703 20.4999C19.5703 20.6182 19.6699 20.7142 19.7925 20.7142Z" fill="white"/>
<path d="M23.6305 23.2856H19.7959C19.6714 23.2856 19.5703 23.3816 19.5703 23.4999C19.5703 23.6182 19.6714 23.7142 19.7959 23.7142H23.6305C23.755 23.7142 23.856 23.6182 23.856 23.4999C23.856 23.3816 23.755 23.2856 23.6305 23.2856Z" fill="white"/>
<path d="M23.6305 32.2856H19.7959C19.6714 32.2856 19.5703 32.3816 19.5703 32.4999C19.5703 32.6182 19.6714 32.7142 19.7959 32.7142H23.6305C23.755 32.7142 23.856 32.6182 23.856 32.4999C23.856 32.3816 23.755 32.2856 23.6305 32.2856Z" fill="white"/>
<path d="M23.99 26.2856H19.865C19.7023 26.2856 19.5703 26.3816 19.5703 26.4999C19.5703 26.6182 19.7023 26.7142 19.865 26.7142H23.99C24.1526 26.7142 24.2846 26.6182 24.2846 26.4999C24.2846 26.3816 24.1526 26.2856 23.99 26.2856Z" fill="white"/>
</svg>
