<svg width="56" height="56" viewBox="0 0 56 56" fill="none" xmlns="http://www.w3.org/2000/svg">
<circle cx="28" cy="28" r="28" fill="#60BE3F"/>
<path d="M37.375 26.5H18.625C18.3267 26.5003 18.0408 26.619 17.8299 26.8299C17.619 27.0408 17.5003 27.3267 17.5 27.625V37.375C17.5003 37.6733 17.619 37.9592 17.8299 38.1701C18.0408 38.381 18.3267 38.4997 18.625 38.5H37.375C37.6733 38.4997 37.9592 38.381 38.1701 38.1701C38.381 37.9592 38.4997 37.6733 38.5 37.375V27.625C38.4997 27.3267 38.381 27.0408 38.1701 26.8299C37.9592 26.619 37.6733 26.5003 37.375 26.5ZM37.75 37.375C37.7499 37.4744 37.7103 37.5697 37.64 37.64C37.5697 37.7103 37.4744 37.7499 37.375 37.75H18.625C18.5256 37.7499 18.4303 37.7103 18.36 37.64C18.2897 37.5697 18.2501 37.4744 18.25 37.375V27.625C18.2501 27.5256 18.2897 27.4303 18.36 27.36C18.4303 27.2897 18.5256 27.2501 18.625 27.25H37.375C37.4744 27.2501 37.5697 27.2897 37.64 27.36C37.7103 27.4303 37.7499 27.5256 37.75 27.625V37.375ZM22 28.375C22 28.4745 21.9605 28.5698 21.8902 28.6402C21.8198 28.7105 21.7245 28.75 21.625 28.75H19.75V30.625C19.75 30.7245 19.7105 30.8198 19.6402 30.8902C19.5698 30.9605 19.4745 31 19.375 31C19.2755 31 19.1802 30.9605 19.1098 30.8902C19.0395 30.8198 19 30.7245 19 30.625V28.375C19 28.2755 19.0395 28.1802 19.1098 28.1098C19.1802 28.0395 19.2755 28 19.375 28H21.625C21.7245 28 21.8198 28.0395 21.8902 28.1098C21.9605 28.1802 22 28.2755 22 28.375ZM22 36.625C22 36.7245 21.9605 36.8198 21.8902 36.8902C21.8198 36.9605 21.7245 37 21.625 37H19.375C19.2755 37 19.1802 36.9605 19.1098 36.8902C19.0395 36.8198 19 36.7245 19 36.625V34.375C19 34.2755 19.0395 34.1802 19.1098 34.1098C19.1802 34.0395 19.2755 34 19.375 34C19.4745 34 19.5698 34.0395 19.6402 34.1098C19.7105 34.1802 19.75 34.2755 19.75 34.375V36.25H21.625C21.7245 36.25 21.8198 36.2895 21.8902 36.3598C21.9605 36.4302 22 36.5255 22 36.625ZM37 34.375V36.625C37 36.7245 36.9605 36.8198 36.8902 36.8902C36.8198 36.9605 36.7245 37 36.625 37H34.375C34.2755 37 34.1802 36.9605 34.1098 36.8902C34.0395 36.8198 34 36.7245 34 36.625C34 36.5255 34.0395 36.4302 34.1098 36.3598C34.1802 36.2895 34.2755 36.25 34.375 36.25H36.25V34.375C36.25 34.2755 36.2895 34.1802 36.3598 34.1098C36.4302 34.0395 36.5255 34 36.625 34C36.7245 34 36.8198 34.0395 36.8902 34.1098C36.9605 34.1802 37 34.2755 37 34.375ZM37 28.375V30.625C37 30.7245 36.9605 30.8198 36.8902 30.8902C36.8198 30.9605 36.7245 31 36.625 31C36.5255 31 36.4302 30.9605 36.3598 30.8902C36.2895 30.8198 36.25 30.7245 36.25 30.625V28.75H34.375C34.2755 28.75 34.1802 28.7105 34.1098 28.6402C34.0395 28.5698 34 28.4745 34 28.375C34 28.2755 34.0395 28.1802 34.1098 28.1098C34.1802 28.0395 34.2755 28 34.375 28H36.625C36.7245 28 36.8198 28.0395 36.8902 28.1098C36.9605 28.1802 37 28.2755 37 28.375ZM28 27.8125C27.0729 27.8125 26.1666 28.0874 25.3958 28.6025C24.6249 29.1176 24.0241 29.8496 23.6693 30.7062C23.3145 31.5627 23.2217 32.5052 23.4026 33.4145C23.5834 34.3238 24.0299 35.159 24.6854 35.8146C25.341 36.4701 26.1762 36.9166 27.0855 37.0974C27.9948 37.2783 28.9373 37.1855 29.7938 36.8307C30.6504 36.4759 31.3824 35.8751 31.8975 35.1042C32.4126 34.3334 32.6875 33.4271 32.6875 32.5C32.6861 31.2572 32.1918 30.0658 31.313 29.187C30.4342 28.3082 29.2428 27.8139 28 27.8125ZM28 36.4375C27.2212 36.4375 26.46 36.2066 25.8124 35.7739C25.1649 35.3413 24.6602 34.7263 24.3622 34.0068C24.0642 33.2873 23.9862 32.4956 24.1382 31.7318C24.2901 30.968 24.6651 30.2664 25.2158 29.7158C25.7664 29.1651 26.468 28.7901 27.2318 28.6382C27.9956 28.4862 28.7873 28.5642 29.5068 28.8622C30.2263 29.1602 30.8413 29.6649 31.2739 30.3124C31.7066 30.96 31.9375 31.7212 31.9375 32.5C31.9363 33.5439 31.5211 34.5447 30.7829 35.2829C30.0447 36.0211 29.0439 36.4363 28 36.4375ZM28 25.375C28.7788 25.375 29.54 25.1441 30.1876 24.7114C30.8351 24.2788 31.3398 23.6638 31.6378 22.9443C31.9358 22.2248 32.0138 21.4331 31.8618 20.6693C31.7099 19.9055 31.3349 19.2039 30.7842 18.6533C30.2336 18.1026 29.532 17.7276 28.7682 17.5757C28.0044 17.4237 27.2127 17.5017 26.4932 17.7997C25.7737 18.0977 25.1587 18.6024 24.7261 19.2499C24.2934 19.8975 24.0625 20.6587 24.0625 21.4375C24.0637 22.4814 24.4789 23.4822 25.2171 24.2204C25.9553 24.9586 26.9561 25.3738 28 25.375ZM28 18.25C28.6304 18.25 29.2467 18.4369 29.7709 18.7872C30.2951 19.1374 30.7036 19.6353 30.9449 20.2177C31.1861 20.8001 31.2492 21.441 31.1263 22.0594C31.0033 22.6777 30.6997 23.2456 30.2539 23.6914C29.8081 24.1372 29.2402 24.4408 28.6219 24.5638C28.0035 24.6867 27.3626 24.6236 26.7802 24.3824C26.1978 24.1411 25.6999 23.7326 25.3497 23.2084C24.9994 22.6842 24.8125 22.0679 24.8125 21.4375C24.8134 20.5924 25.1496 19.7822 25.7471 19.1846C26.3447 18.5871 27.1549 18.2509 28 18.25ZM26.0474 21.7026C25.9781 21.6321 25.9395 21.5371 25.9399 21.4382C25.9404 21.3393 25.9799 21.2447 26.0498 21.1748C26.1197 21.1049 26.2143 21.0654 26.3132 21.0649C26.4121 21.0645 26.5071 21.1031 26.5776 21.1724L27.4375 22.0323L29.4224 20.0474C29.4571 20.012 29.4984 19.9839 29.5441 19.9647C29.5897 19.9454 29.6387 19.9354 29.6882 19.9351C29.7377 19.9349 29.7868 19.9445 29.8326 19.9634C29.8784 19.9822 29.92 20.0099 29.955 20.045C29.9901 20.08 30.0178 20.1216 30.0366 20.1674C30.0555 20.2132 30.0651 20.2623 30.0649 20.3118C30.0646 20.3613 30.0546 20.4103 30.0353 20.4559C30.0161 20.5016 29.988 20.5429 29.9526 20.5776L27.7026 22.8276C27.6678 22.8625 27.6265 22.8901 27.581 22.9089C27.5355 22.9278 27.4867 22.9375 27.4375 22.9375C27.3882 22.9375 27.3395 22.9278 27.294 22.9089C27.2485 22.8901 27.2072 22.8625 27.1724 22.8276L26.0474 21.7026Z" fill="white"/>
<path d="M29.5767 31.7926L29.4318 32.2869H26.6705L26.8153 31.7926H29.5767ZM28.2812 35.125L26.7216 33.2159L26.7131 32.858H27.4886C27.6903 32.858 27.8622 32.8295 28.0043 32.7727C28.1463 32.7145 28.255 32.6278 28.3303 32.5128C28.4055 32.3963 28.4432 32.25 28.4432 32.0739C28.4432 31.8139 28.3651 31.6101 28.2088 31.4624C28.0526 31.3132 27.8125 31.2386 27.4886 31.2386H26.6705L26.8153 30.7614H27.4886C27.8352 30.7614 28.1193 30.8189 28.3409 30.9339C28.5639 31.0476 28.7287 31.2038 28.8352 31.4027C28.9432 31.6001 28.9972 31.8239 28.9972 32.0739C28.9972 32.2997 28.9474 32.5078 28.848 32.6982C28.75 32.8871 28.5923 33.0391 28.375 33.1541C28.1591 33.2692 27.8736 33.3267 27.5185 33.3267H27.5057L28.946 35.0909V35.125H28.2812ZM29.5767 30.7614L29.4318 31.2557L27.2585 31.2386L27.4034 30.7614H29.5767Z" fill="white"/>
</svg>
