<svg width="56" height="56" viewBox="0 0 56 56" fill="none" xmlns="http://www.w3.org/2000/svg">
<circle cx="28" cy="28" r="28" fill="#FFD260"/>
<path d="M19.6331 38.5714H28.2785C28.5275 38.5714 28.7296 38.3794 28.7296 38.1429C28.7296 37.9063 28.5275 37.7143 28.2785 37.7143H19.6331C19.2298 37.7143 18.9023 37.4031 18.9023 37.02V19.5514C18.9023 19.1683 19.2298 18.8571 19.6331 18.8571H29.7293V22.7143C29.7293 22.9509 29.9314 23.1429 30.1805 23.1429H34.2406V27.2477C34.2406 27.4843 34.4427 27.6763 34.6917 27.6763C34.9408 27.6763 35.1429 27.4843 35.1429 27.2477V22.7143C35.1429 22.6586 35.1311 22.6029 35.1086 22.5506C35.086 22.4974 35.0526 22.4503 35.0102 22.4109L30.4998 18.126C30.4583 18.0866 30.4078 18.0549 30.3528 18.0326C30.2977 18.0111 30.2391 18 30.1805 18H19.6331C18.7326 18 18 18.696 18 19.5514V37.02C18 37.8754 18.7326 38.5714 19.6331 38.5714ZM30.6316 19.4631L33.6027 22.2857H30.6316V19.4631Z" fill="white"/>
<g clip-path="url(#clip0_4535_726)">
<path d="M36.9518 35.4351C36.7787 35.3064 36.534 35.3423 36.4052 35.5154C36.3344 35.6106 36.2586 35.704 36.18 35.7929C36.0371 35.9546 36.0523 36.2014 36.2139 36.3443C36.2883 36.41 36.3805 36.4423 36.4725 36.4423C36.5805 36.4423 36.6881 36.3977 36.7653 36.3104C36.8585 36.205 36.9482 36.0944 37.0321 35.9817C37.1608 35.8086 37.1249 35.5639 36.9518 35.4351Z" fill="white"/>
<path d="M37.6082 33.6033C37.3975 33.5574 37.1893 33.6911 37.1434 33.9019C37.1182 34.0178 37.0877 34.134 37.0527 34.2472C36.989 34.4533 37.1044 34.672 37.3106 34.7357C37.349 34.7476 37.3878 34.7532 37.426 34.7532C37.5928 34.7532 37.7473 34.6455 37.7991 34.4778C37.8406 34.3435 37.8768 34.2056 37.9068 34.068C37.9527 33.8572 37.819 33.6492 37.6082 33.6033Z" fill="white"/>
<path d="M35.0725 36.6863C34.9688 36.7442 34.8614 36.7983 34.7534 36.8471C34.5568 36.9359 34.4694 37.1673 34.5582 37.3639C34.6234 37.5084 34.7656 37.5939 34.9144 37.5939C34.9681 37.5939 35.0228 37.5827 35.0749 37.5592C35.2031 37.5013 35.3304 37.4371 35.4534 37.3684C35.6418 37.2633 35.7092 37.0253 35.604 36.837C35.4989 36.6486 35.2609 36.5812 35.0725 36.6863Z" fill="white"/>
<path d="M32.6093 29.875V32.8382L31.1769 34.2706C31.0244 34.4231 31.0244 34.6705 31.1769 34.823C31.2532 34.8993 31.3531 34.9374 31.4531 34.9374C31.5531 34.9374 31.6531 34.8993 31.7294 34.823L33.2762 33.2762C33.3494 33.203 33.3906 33.1036 33.3906 33V29.875C33.3906 29.6593 33.2157 29.4844 32.9999 29.4844C32.7842 29.4844 32.6093 29.6593 32.6093 29.875Z" fill="white"/>
<path d="M37.6094 28.8398C37.3936 28.8398 37.2188 29.0147 37.2188 29.2305V30.3152C36.3095 28.8892 34.7217 28 33 28C31.6645 28 30.4088 28.5201 29.4645 29.4645C28.5201 30.4088 28 31.6645 28 33C28 34.3355 28.5201 35.5912 29.4645 36.5355C30.4088 37.4799 31.6645 38 33 38C33.0033 38 33.0065 37.9996 33.0098 37.9995C33.013 37.9996 33.0162 38 33.0195 38C33.1603 38 33.3025 37.9941 33.4421 37.9824C33.6571 37.9644 33.8168 37.7755 33.7988 37.5605C33.7808 37.3455 33.5922 37.1858 33.3769 37.2039C33.2589 37.2137 33.1387 37.2188 33.0195 37.2188C33.0162 37.2188 33.013 37.2192 33.0098 37.2192C33.0065 37.2192 33.0033 37.2188 33 37.2188C30.6738 37.2188 28.7812 35.3262 28.7812 33C28.7812 30.6738 30.6738 28.7812 33 28.7812C34.4992 28.7812 35.8781 29.5803 36.6316 30.8516H35.5575C35.3417 30.8516 35.1669 31.0264 35.1669 31.2422C35.1669 31.4579 35.3417 31.6328 35.5575 31.6328H36.75C36.9879 31.6328 37.2104 31.566 37.3999 31.4501C37.4121 31.4432 37.4238 31.4357 37.435 31.4276C37.775 31.204 38 30.8193 38 30.3828V29.2305C38 29.0147 37.8251 28.8398 37.6094 28.8398Z" fill="white"/>
</g>
<path d="M20.7925 31.7142H26.3481C26.4708 31.7142 26.5703 31.6182 26.5703 31.4999C26.5703 31.3816 26.4708 31.2856 26.3481 31.2856H20.7925C20.6699 31.2856 20.5703 31.3816 20.5703 31.4999C20.5703 31.6182 20.6699 31.7142 20.7925 31.7142Z" fill="white"/>
<path d="M20.7925 22.7142H26.3481C26.4708 22.7142 26.5703 22.6182 26.5703 22.4999C26.5703 22.3816 26.4708 22.2856 26.3481 22.2856H20.7925C20.6699 22.2856 20.5703 22.3816 20.5703 22.4999C20.5703 22.6182 20.6699 22.7142 20.7925 22.7142Z" fill="white"/>
<path d="M24.6305 25.2856H20.7959C20.6714 25.2856 20.5703 25.3816 20.5703 25.4999C20.5703 25.6182 20.6714 25.7142 20.7959 25.7142H24.6305C24.755 25.7142 24.856 25.6182 24.856 25.4999C24.856 25.3816 24.755 25.2856 24.6305 25.2856Z" fill="white"/>
<path d="M24.6305 34.2856H20.7959C20.6714 34.2856 20.5703 34.3816 20.5703 34.4999C20.5703 34.6182 20.6714 34.7142 20.7959 34.7142H24.6305C24.755 34.7142 24.856 34.6182 24.856 34.4999C24.856 34.3816 24.755 34.2856 24.6305 34.2856Z" fill="white"/>
<path d="M24.99 28.2856H20.865C20.7023 28.2856 20.5703 28.3816 20.5703 28.4999C20.5703 28.6182 20.7023 28.7142 20.865 28.7142H24.99C25.1526 28.7142 25.2846 28.6182 25.2846 28.4999C25.2846 28.3816 25.1526 28.2856 24.99 28.2856Z" fill="white"/>
<defs>
<clipPath id="clip0_4535_726">
<rect width="10" height="10" fill="white" transform="translate(28 28)"/>
</clipPath>
</defs>
</svg>
