<svg width="56" height="56" viewBox="0 0 56 56" fill="none" xmlns="http://www.w3.org/2000/svg">
<circle cx="28" cy="28" r="28" fill="#43CDD7"/>
<path d="M23.4184 29.006C23.414 29.112 23.4428 29.2168 23.5011 29.3064C23.5593 29.3961 23.6441 29.4664 23.7444 29.5081L27.8778 31.22L29.6473 35.2437C29.6887 35.3379 29.7576 35.4182 29.8455 35.4746C29.9334 35.531 30.0363 35.561 30.1416 35.561H30.1631C30.2708 35.5571 30.3749 35.5218 30.4618 35.4597C30.5487 35.3975 30.6143 35.3113 30.6502 35.2123L33.7414 26.1783C33.7706 26.0867 33.7736 25.989 33.7499 25.8959C33.7263 25.8027 33.677 25.7176 33.6073 25.6498C33.5376 25.582 33.4502 25.534 33.3545 25.511C33.2588 25.488 33.1585 25.4908 33.0644 25.5193L23.7873 28.5283C23.6831 28.5617 23.5918 28.6254 23.5259 28.7108C23.4599 28.7962 23.4224 28.8992 23.4184 29.006ZM30.0807 33.5701L28.9524 30.9411L32.0221 27.953L30.0807 33.5701ZM31.2448 27.2243L28.1751 30.2124L25.4744 29.0966L31.2448 27.2243Z" fill="white"/>
<path d="M37.0015 22.0153L31.9511 17.113C31.9009 17.0625 31.8408 17.0223 31.7743 16.9947C31.7079 16.9672 31.6365 16.9529 31.5642 16.9526H21.8144C21.3394 16.9526 20.8839 17.1363 20.548 17.4632C20.2121 17.7902 20.0234 18.2336 20.0234 18.696V35.7807C20.0234 36.2431 20.2121 36.6865 20.548 37.0135C20.8839 37.3404 21.3394 37.5241 21.8144 37.5241H35.3754C35.8503 37.5241 36.3059 37.3404 36.6417 37.0135C36.9776 36.6865 37.1663 36.2431 37.1663 35.7807V22.3919C37.1379 22.2568 37.0819 22.1288 37.0015 22.0153ZM32.1015 18.7274L35.3252 21.8654H32.1015V18.7274ZM36.0917 35.7668C36.0917 35.9517 36.0163 36.1291 35.8819 36.2599C35.7476 36.3906 35.5654 36.4641 35.3754 36.4641H21.8144C21.6244 36.4641 21.4422 36.3906 21.3078 36.2599C21.1735 36.1291 21.098 35.9517 21.098 35.7668V18.682C21.098 18.4971 21.1735 18.3197 21.3078 18.1889C21.4422 18.0582 21.6244 17.9847 21.8144 17.9847H31.027V22.3919C31.027 22.5306 31.0836 22.6636 31.1843 22.7617C31.2851 22.8598 31.4217 22.9149 31.5642 22.9149H36.0917V35.7668Z" fill="white"/>
</svg>
